<?xml version="1.0" encoding="utf-8"?>
<!-- Generator: Adobe Illustrator 24.1.2, SVG Export Plug-In . SVG Version: 6.00 Build 0)  -->
<svg version="1.1" id="Слой_1" xmlns="http://www.w3.org/2000/svg" xmlns:xlink="http://www.w3.org/1999/xlink" x="0px" y="0px"
	 viewBox="0 0 409.6 480" style="enable-background:new 0 0 409.6 480;" xml:space="preserve">
<style type="text/css">
	.st0{fill-rule:evenodd;clip-rule:evenodd;fill:#104533;}
	.st1{fill-rule:evenodd;clip-rule:evenodd;fill:#CF1F2E;}
	.st2{fill-rule:evenodd;clip-rule:evenodd;fill:#FFFFFF;}
	.st3{fill-rule:evenodd;clip-rule:evenodd;fill:#C4C4C4;}
</style>
<path class="st0" d="M0.5,321.3c0,16.3-0.5,18.1,2.3,20.9c22.9,21.6,46.1,42.1,71.6,60.7c41.3,30,80.4,54.5,126.8,75.3l3.8,1.8
	c0,0,0,0.1,3.9-1.6c71.6-31.6,142.2-83,198.3-136.1c3-2.8,2.3-4.7,2.3-20.9c0.1-92.7-0.5-185.4-0.5-278.2h-22.5
	c-30.1,0-60.3,6.2-88.2,17.7l-0.5,0.3l-6.3,3c-9.2-10.4-17.3-18.2-28.3-27.4c-7-5.8-15-11.3-22.5-16.5c-13.2-9-20-12.7-33.1-19.2
	c-2.7-1.3-2.7-1.3-5.4,0c-12.8,6.2-21.6,10.9-33.6,19.2c-7.4,5.1-15.5,10.8-22.5,16.5c-11.2,9-19.3,16.7-28.5,27.2l-6.3-3l-0.5-0.3
	C83,49.1,52.8,43,22.6,43H0C0.5,135.9,0.5,228.6,0.5,321.3z"/>
<path class="st1" d="M124.2,92.1l-21.6-10.4C77.9,71.4,50.7,65.8,23.1,65.6V327c0,5.9,22,22.8,26,26.7c4.6,4.3,9.8,8.1,14.6,12.1
	c12.3,10.1,66.5,49.2,79.6,53.8c0.1-8.4,0.4-16.6,0.4-25c0-1.5,0-1.5-1.2-2.2c-0.5-0.3-1.3-0.8-2.2-1.2c-2.3-1.5-5.9-3.1-11.7-6.9
	c-26-17.4-34.8-24.4-57.9-42.2l-13.5-11.5c-3.8-3-11.2-8.6-11.3-13.5C45.6,309,46,300.2,46,292c0.1-66.5-0.2-133.3-0.2-200
	c32.1,0.5,58.7,13.9,81.6,28.6c3.6,2.3,4.5,0.9,8.8-0.7c21-8,44.8-11.9,68.7-11.9s47.6,3.9,68.7,11.9c4.3,1.6,5.1,3,8.8,0.7
	C305.3,106,331.9,92.7,364,92c0,66.8-0.3,133.4-0.3,200.2c0,8.2,0.3,17,0,25.1c-0.1,6.2-19.3,20.4-24.8,25
	c-22.9,17.8-31.7,24.8-57.9,42.2c-5.8,3.9-9.4,5.4-11.7,6.9c-0.8,0.5-1.6,0.9-2.2,1.2c-1.2,0.8-1.2,0.8-1.2,2.2
	c0,8.4,0.3,16.6,0.4,25c13.1-4.6,67.3-43.7,79.6-53.8c4.7-3.9,10.1-7.7,14.6-12.1c4-3.9,26-20.8,26-26.7V65.8
	c-27.5,0-54.9,5.7-79.5,16.1l-21.6,10.4c-3.2-3.1-5.8-7.3-8.8-10.8c-10.4-12.2-14.8-16.5-27.7-27.3c-5.3-4.3-28.3-21.3-39.3-27
	c-4.7-2.4-4.9-2.4-9.6,0c-10.9,5.7-34,22.7-39.3,27c-13,10.8-17.4,15.1-27.8,27.3C130.2,84.8,127.5,89,124.2,92.1z"/>
<path class="st2" d="M166,386.5l-0.4,45.7l39.4,20.1l39.3-19.7v-46.2l-10.8,28h-56.4L166,386.5z M342.1,308.6l-0.7,0.5
	c-5.7,5.5-13.6,12.3-19,16.9c-7.6,6.3-16.9,13.5-26.2,20.1c-9.4,6.6-18.9,12.8-23.7,15.9c-2.4,1.6-3.6,2.4-4.3,2.7l-0.9,0.8
	l26.4-72.9l21-13.1l-7.3,22.3l34.8-21.7C342.1,289.6,342.1,299.1,342.1,308.6L342.1,308.6z M68.2,308.6c0.9,0.9,2.2,1.9,3.1,2.8
	c3,2.7,9,8.2,16.6,14.4c7.6,6.3,16.9,13.5,26.2,20.1s18.9,12.8,23.7,15.9c2.4,1.6,3.6,2.4,4.3,2.7l0.9,0.8l-26.4-72.9l-21-13.1
	l7.3,22.3L68.1,280C68.2,289.6,68.2,299.1,68.2,308.6L68.2,308.6z M166,365l11.6-29.6h55l11.2,30.6l14.3-37l-52.9-13.9l-52.8,13.8
	L166,365z M263.9,313.5l-48.1-12.4l6-16.5l35.3-21.3l13.4,12.7l-21.7,12.8l21.9,5.4L263.9,313.5z M145.9,313.5l48.1-12.4l-6-16.5
	l-35.3-21.3L139.3,276l21.8,12.8l-22,5.4L145.9,313.5z M324.4,138.1l17.3-20.2v74.7l-17.3-17.4V138.1z M85.9,138.1l-17.4-20.2v74.7
	l17.4-17.4V138.1z M287.2,250.1l-19.3,0.1l-17.7-17.7h23.1l9.2-22.2l17,7.4L287.2,250.1z M239.3,255.6H171v-23.1h68.3V255.6z
	 M123,250.1l19.2,0.1l17.6-17.7h-22.9l-9.3-22.2l-17,7.4L123,250.1z"/>
<path class="st3" d="M205.2,221.8c0.1-0.1,2.6-3.4,2.7-3.5c2.7-3.5,8.1-10.7,10.8-14.2c2.7-3.5,2.7-3.5,2.3-3.8
	c-0.4-0.3-1.1-0.7-3-1.1c-2-0.4-5.1-0.8-7.8-0.9c-3.2-0.3-6.5-0.3-9.7,0c-2.7,0.1-5.9,0.5-7.8,0.9c-2,0.4-2.7,0.8-3,1.1
	c-0.4,0.3-0.4,0.1,2.3,3.8c2.7,3.5,8.1,10.7,10.8,14.2C204.4,220.8,204.9,221.5,205.2,221.8L205.2,221.8z M162.1,162.1l2.3,3.1
	l9.2,12.4c2.3,3.1,2.4,3.2,2.4,3.2l-0.9,0.4c-0.9,0.3-2.7,0.9-4.5,1.8c-1.8,0.8-3.6,1.8-5.4,2.7s-3.6,2-4.6,2.7l-0.9,0.5l-1.2-0.9
	c-1.2-0.9-3.6-3-6.7-5.3s-6.9-5-8.8-6.3s-1.9-1.3-1.9-1.5c0.1-0.1,0.4-0.4,1.5-1.2s3-2.2,5.3-3.8c2.3-1.5,5-3.2,7.3-4.5
	s4.5-2.2,5.5-2.7S162,162.2,162.1,162.1L162.1,162.1z M247.9,162.1l-2.3,3.1l-9.2,12.4c-2.3,3.1-2.4,3.2-2.4,3.2l0.9,0.4
	c0.9,0.3,2.7,0.9,4.5,1.8c1.8,0.8,3.6,1.8,5.4,2.7s3.6,2,4.6,2.7l0.9,0.5l1.2-0.9c1.2-0.9,3.6-3,6.7-5.3c3.1-2.3,6.9-5,8.8-6.3
	s1.9-1.3,1.9-1.5c-0.1-0.1-0.4-0.4-1.5-1.2s-3-2.2-5.3-3.8c-2.3-1.5-5-3.2-7.3-4.5c-2.3-1.3-4.5-2.2-5.5-2.7
	S248.2,162.2,247.9,162.1L247.9,162.1z M201,176.6c-2.6,0.3-5.5,0.5-7.4,0.8s-2.7,0.4-3.1,0.5l-0.4,0.1l-1.2-3.6
	c-1.2-3.6-3.6-11.1-5-14.8c-1.2-3.8-1.2-3.8-1.2-3.9c0,0,0-0.1,0.8-0.3c0.8-0.3,2.7-0.7,5.1-1.1c2.4-0.4,5.7-0.8,8.6-0.9
	c5.7-0.4,10.1-0.4,15.8,0c3,0.3,6.1,0.5,8.6,0.9c2.4,0.4,4.2,0.8,5.1,1.1l0.8,0.3c0,0,0,0.1-1.2,3.9s-3.6,11.2-5,14.8l-1.2,3.6
	l-0.4-0.1c-0.4-0.1-1.2-0.3-3.1-0.5c-1.9-0.3-4.9-0.5-7.4-0.8C206.1,176.3,204.2,176.3,201,176.6L201,176.6z M99.5,230.9
	c-0.1,0.1-0.3,0.1-0.3,0.1l3.6,2.3c3.5,2.3,10.7,6.6,14.2,8.9c3.5,2.2,3.5,2.2,3.6,2.2h4.7c4.6,0,13.6-0.1,18.1-0.1h4.6
	c0,0,0.1,0-3.6,3.8c-3.8,3.8-11.2,11.5-15,15.2l-3.8,3.8l-7-4.3c-7-4.3-20.9-13-27.9-17.3l-7-4.3l1.5,4.3c1.5,4.3,4.3,12.8,5.7,17.1
	l1.5,4.3l-3.9-2.4c-3.9-2.4-11.9-7.2-15.8-9.6l-3.9-2.4l0.5-2.2c0.5-2.2,1.8-6.5,3.5-11.5c1.8-5,3.9-10.7,6.2-15.7
	c2.3-5.1,4.5-9.6,6.9-14c2.4-4.5,4.9-8.8,8.4-13.6c3.5-4.9,8-10.4,10.3-13.1l2.3-2.7l-6.3-10.3c-6.3-10.3-19-30.9-25.4-41.2
	l-6.3-10.3l1.3,0.3c1.3,0.3,3.9,0.8,7,1.9c3.2,1.1,7,2.6,10.9,4.3c3.9,1.8,7.7,3.8,11.9,6.1s8.6,5.1,13,8.2
	c4.3,3.1,8.6,6.6,10.8,8.4c2.2,1.8,2.2,1.9,2.2,1.9s0,0.1,1.9-0.8c1.8-0.8,5.4-2.6,8.8-4s6.5-2.7,8.1-3.4l1.6-0.7l1.6,2.3
	c1.6,2.3,4.9,6.9,6.5,9.2l1.6,2.3l1.2-0.7c1.2-0.7,3.8-2.2,6.3-3.4c2.6-1.2,5-2.2,7.8-3s5.9-1.3,7.6-1.6l1.6-0.3l-0.8-2.2
	c-0.8-2-2.2-6.1-2.8-8.2l-0.7-2l1.2-0.3c1.2-0.3,3.6-0.7,7.4-1.1c3.8-0.4,8.9-0.8,13.1-0.9c5-0.3,9.8-0.3,14.8,0
	c4.2,0.1,9.3,0.5,13.1,0.9c3.8,0.4,6.2,0.8,7.4,1.1l1.2,0.3l-0.7,2c-0.7,2-2.2,6.1-2.8,8.2c-0.8,2-0.8,2.2-0.8,2.2s0.1,0,1.6,0.3
	c1.6,0.3,4.7,0.8,7.6,1.6c2.8,0.8,5.4,1.8,7.8,3c2.6,1.2,5,2.7,6.3,3.4l1.2,0.7l1.6-2.3c1.6-2.3,4.9-6.9,6.5-9.2l1.6-2.3
	c0,0,0.1,0,1.6,0.7c1.6,0.7,4.7,1.9,8.1,3.4s7,3.2,8.8,4s1.8,0.8,1.9,0.8c0,0,0-0.1,2.2-1.9c2.2-1.8,6.3-5.3,10.8-8.4
	c4.3-3.1,8.8-5.8,13-8.2s8.1-4.3,11.9-6.1c3.9-1.8,7.7-3.2,10.9-4.3c3.2-1.1,5.8-1.6,7-1.9l1.3-0.3l-6.3,10.3
	c-6.3,10.3-19,30.9-25.4,41.2s-6.3,10.3-6.3,10.3l2.3,2.7c2.3,2.7,6.7,8.2,10.3,13.1c3.5,4.9,5.9,9.2,8.4,13.6
	c2.4,4.5,4.6,8.9,6.9,14s4.5,10.8,6.2,15.7c1.8,5,2.8,9.3,3.5,11.5l0.5,2.2l-3.9,2.4c-3.9,2.4-11.9,7.2-15.8,9.6l-3.9,2.4l1.5-4.3
	c1.5-4.3,4.3-12.8,5.7-17.1l1.5-4.3l-7,4.3c-7,4.3-20.9,13-27.9,17.3l-7,4.3l-3.8-3.8c-3.8-3.8-11.6-11.9-15.1-15.4l-3.8-3.8h4.7
	c4.6,0,13.6,0.1,18.1,0.1h4.7l3.6-2.2c3.5-2.2,10.7-6.6,14.2-8.9c3.5-2.2,3.6-2.3,3.6-2.3s-0.1,0-0.3-0.1c-0.1-0.1-0.5-0.4-5.3-3.8
	c-4.7-3.5-13.9-10.1-18.5-13.5l-4.6-3.4h20.4l-0.9-1.3c-0.9-1.3-2.8-4-4.6-6.5c-1.8-2.4-3.5-4.6-5.3-6.6s-3.6-3.9-4.6-4.9l-0.9-0.9
	l-11.7,7.2c-11.7,7.2-35.4,21.3-47.1,28.5l-11.7,7.2l3.9,3.9c3.9,3.9,11.6,11.6,15.5,15.4l3.9,3.9l-5.7,1.9l-22.8,7.6l-5.7,1.9
	l-0.5-0.1c-0.1,0-0.3-0.1-0.4-0.1l-4.7-1.6l-22.8-7.6l-5.7-1.9l3.9-3.9c3.9-3.9,11.6-11.6,15.5-15.4l3.9-3.9l-11.7-7.2
	c-11.7-7.2-35.4-21.3-47.1-28.5l-11.7-7.2l-0.9,0.9c-0.9,0.9-2.8,2.8-4.6,4.9c-1.8,2-3.5,4.2-5.3,6.6s-3.6,5.1-4.6,6.5l-0.9,1.3
	h20.4l-4.6,3.4c-4.6,3.4-13.8,10-18.5,13.5C100.1,230.5,99.7,230.8,99.5,230.9L99.5,230.9z"/>
</svg>
